<svg xmlns="http://www.w3.org/2000/svg" version="1.1" xmlns:xlink="http://www.w3.org/1999/xlink" xmlns:svgjs="http://svgjs.dev/svgjs" width="1500" height="431" viewBox="0 0 1500 431"><g transform="matrix(1,0,0,1,-0.9090909090909918,0.5250966316300207)"><svg viewBox="0 0 396 114" data-background-color="#051726" preserveAspectRatio="xMidYMid meet" height="431" width="1500" xmlns="http://www.w3.org/2000/svg" xmlns:xlink="http://www.w3.org/1999/xlink"><g id="tight-bounds" transform="matrix(1,0,0,1,0.2400000000000091,-0.13888866822696855)"><svg viewBox="0 0 395.52 114.27777733645394" height="114.27777733645394" width="395.52"><g><svg viewBox="0 0 688.4253532369105 198.9070571146271" height="114.27777733645394" width="395.52"><g><rect width="7.773747026238387" height="164.24428687508765" x="264.78148310533606" y="17.33138511976972" fill="#000000" opacity="1" stroke-width="0" stroke="transparent" fill-opacity="1" class="rect-qz-0" data-fill-palette-color="primary" rx="1%" id="qz-0" data-palette-color="#000000"></rect></g><g transform="matrix(1,0,0,1,292.9053532369105,17.739952997568437)"><svg viewBox="0 0 395.52 163.42715111949022" height="163.42715111949022" width="395.52"><g id="textblocktransform"><svg viewBox="0 0 395.52 163.42715111949022" height="163.42715111949022" width="395.52" id="textblock"><g><svg viewBox="0 0 395.52 86.20157536274797" height="86.20157536274797" width="395.52"><g transform="matrix(1,0,0,1,0,0)"><svg width="395.52" viewBox="1.75 -36 170.23 36.8" height="86.20157536274797" data-palette-color="#000000"><g class="wordmark-text-0" data-fill-palette-color="primary" id="text-0"><path d="M21.8-7.9L17.25-7.9Q17.25-9.75 16.2-11.18 15.15-12.6 13.5-13.85 11.85-15.1 9.98-16.4 8.1-17.7 6.45-19.25 4.8-20.8 3.75-22.78 2.7-24.75 2.7-27.35L2.7-27.35 7.25-27.35Q7.25-25.55 8.3-24.13 9.35-22.7 11-21.43 12.65-20.15 14.53-18.85 16.4-17.55 18.05-16.03 19.7-14.5 20.75-12.53 21.8-10.55 21.8-7.9L21.8-7.9ZM7.25-27.25L2.7-27.25Q2.7-30 3.95-31.95 5.2-33.9 7.45-34.95 9.7-36 12.6-36L12.6-36 12.6-32.1Q10.1-32.1 8.68-30.8 7.25-29.5 7.25-27.25L7.25-27.25ZM17.25-8L21.8-8Q21.8-5.3 20.55-3.33 19.3-1.35 17.07-0.3 14.85 0.75 11.9 0.75L11.9 0.75 11.9-3.2Q14.4-3.2 15.83-4.48 17.25-5.75 17.25-8L17.25-8ZM21.55-28.55L17.3-27.7Q17.05-29.95 15.73-31.03 14.4-32.1 12.6-32.1L12.6-32.1 12.6-36Q14.95-36 16.85-35.05 18.75-34.1 20-32.45 21.25-30.8 21.55-28.55L21.55-28.55ZM1.75-9.05L5.9-9.9Q6.2-6.75 7.78-4.98 9.35-3.2 11.9-3.2L11.9-3.2 11.9 0.75Q7.65 0.75 4.98-1.85 2.3-4.45 1.75-9.05L1.75-9.05ZM43.95-8.95L39.4-8.95 39.4-16.3 43.95-16.3 43.95-8.95ZM29.9-8.95L25.35-8.95 25.35-16.3 29.9-16.3 29.9-8.95ZM34.8-22.05L34.5-22.05 34.5-26 34.8-26 34.8-22.05ZM34.8 0.75L34.5 0.75 34.5-3.2 34.8-3.2 34.8 0.75ZM29.9-16.25L25.35-16.25Q25.35-19.05 26.57-21.25 27.8-23.45 29.87-24.73 31.95-26 34.6-26L34.6-26 34.6-22.05Q32.4-22.05 31.15-20.55 29.9-19.05 29.9-16.25L29.9-16.25ZM43.95-16.25L43.95-16.25 39.4-16.25Q39.4-19.05 38.17-20.55 36.95-22.05 34.7-22.05L34.7-22.05 34.7-26Q37.35-26 39.42-24.73 41.5-23.45 42.72-21.25 43.95-19.05 43.95-16.25ZM25.35-9L25.35-9 29.9-9Q29.9-6.25 31.15-4.73 32.4-3.2 34.6-3.2L34.6-3.2 34.6 0.75Q31.95 0.75 29.87-0.53 27.8-1.8 26.57-4 25.35-6.2 25.35-9ZM39.4-9L43.95-9Q43.95-6.2 42.72-4 41.5-1.8 39.42-0.53 37.35 0.75 34.7 0.75L34.7 0.75 34.7-3.2Q36.95-3.2 38.17-4.73 39.4-6.25 39.4-9L39.4-9ZM53.75 0L49.2 0 49.2-36 53.75-36 53.75 0ZM64.79 0L60.24 0 60.24-25.25 64.79-25.25 64.79 0ZM78.84 0L74.29 0 74.29-17.2 78.84-17.2 78.84 0ZM78.84-17.2L74.29-17.2Q74.29-19.3 72.99-20.63 71.69-21.95 69.64-21.95L69.64-21.95 70.79-26Q73.09-26 74.92-24.85 76.74-23.7 77.79-21.7 78.84-19.7 78.84-17.2L78.84-17.2ZM64.79-17.1L62.79-17.1Q62.79-19.65 63.84-21.68 64.89-23.7 66.69-24.85 68.49-26 70.79-26L70.79-26 69.64-21.95Q67.49-21.95 66.14-20.6 64.79-19.25 64.79-17.1L64.79-17.1ZM64.79 0L60.24 0 60.24-36 64.79-36 64.79 0ZM102.14 0L97.59 0 97.59-17.2 102.14-17.2 102.14 0ZM91.49 0.75L91.49 0.75 91.84-3Q93.64-3 94.92-3.9 96.19-4.8 96.89-6.55 97.59-8.3 97.59-10.7L97.59-10.7 99.84-10.8Q99.84-7.4 98.74-4.8 97.64-2.2 95.77-0.73 93.89 0.75 91.49 0.75ZM91.84-3L91.49 0.75Q89.24 0.75 87.39-0.3 85.54-1.35 84.44-3.18 83.34-5 83.34-7.25L83.34-7.25 87.64-7.4Q87.64-5.5 88.92-4.25 90.19-3 91.84-3L91.84-3ZM87.64-7.4L83.34-7.25Q83.34-9.6 84.52-11.38 85.69-13.15 87.69-14.2 89.69-15.25 92.24-15.25L92.24-15.25 92.49-11.75Q90.39-11.75 89.02-10.53 87.64-9.3 87.64-7.4L87.64-7.4ZM99.94-11.75L92.49-11.75 92.24-15.25 99.94-15.25 99.94-11.75ZM99.84-10.8L97.59-10.7 97.59-17.15 99.84-17.15 99.84-10.8ZM102.14-17.1L102.14-17.1 97.59-17.1Q97.59-19.3 96.27-20.7 94.94-22.1 92.84-22.1L92.84-22.1 92.84-26Q95.54-26 97.62-24.85 99.69-23.7 100.92-21.68 102.14-19.65 102.14-17.1ZM88.14-17.7L88.14-17.7 83.94-18.55Q84.24-20.8 85.47-22.45 86.69-24.1 88.62-25.05 90.54-26 92.89-26L92.89-26 92.89-22.1Q91.04-22.1 89.72-21.03 88.39-19.95 88.14-17.7ZM118.74 0L114.54 0 122.34-25.25 126.89-25.25 118.74 0ZM118.24 0L114.09 0 105.89-25.25 110.44-25.25 118.24 0ZM148.63-11.25L131.58-11.25 131.58-14.5 148.63-14.5 148.63-11.25ZM139.58 0.8L139.33 0.8 139.33-3.15 139.58-3.15 139.58 0.8ZM134.69-8.95L130.13-8.95 130.13-16.3 134.69-16.3 134.69-8.95ZM148.63-14.5L144.08-14.5 144.08-17.1 148.63-17.1 148.63-14.5ZM148.63-17.1L148.63-17.1 144.08-17.1Q144.08-19.3 142.76-20.7 141.44-22.1 139.33-22.1L139.33-22.1 139.33-26Q142.03-26 144.11-24.85 146.19-23.7 147.41-21.68 148.63-19.65 148.63-17.1ZM144.28-7.5L144.28-7.5 148.53-6.65Q148.23-4.5 146.98-2.8 145.73-1.1 143.83-0.15 141.94 0.8 139.58 0.8L139.58 0.8 139.58-3.15Q141.38-3.15 142.71-4.23 144.03-5.3 144.28-7.5ZM134.69-16.25L130.13-16.25Q130.13-19.1 131.36-21.28 132.58-23.45 134.66-24.73 136.73-26 139.38-26L139.38-26 139.38-22.1Q137.19-22.1 135.94-20.58 134.69-19.05 134.69-16.25L134.69-16.25ZM130.13-8.95L130.13-8.95 134.69-8.95Q134.69-6.2 135.94-4.67 137.19-3.15 139.38-3.15L139.38-3.15 139.38 0.8Q136.73 0.8 134.66-0.48 132.58-1.75 131.36-3.95 130.13-6.15 130.13-8.95ZM157.93 0L153.38 0 153.38-25.25 157.93-25.25 157.93 0ZM171.98 0L167.43 0 167.43-17.2 171.98-17.2 171.98 0ZM171.98-17.2L167.43-17.2Q167.43-19.3 166.13-20.63 164.83-21.95 162.78-21.95L162.78-21.95 163.93-26Q166.23-26 168.06-24.85 169.88-23.7 170.93-21.7 171.98-19.7 171.98-17.2L171.98-17.2ZM157.93-17.1L155.93-17.1Q155.93-19.65 156.98-21.68 158.03-23.7 159.83-24.85 161.63-26 163.93-26L163.93-26 162.78-21.95Q160.63-21.95 159.28-20.6 157.93-19.25 157.93-17.1L157.93-17.1Z" fill="#000000" data-fill-palette-color="primary"></path></g></svg></g></svg></g><g transform="matrix(1,0,0,1,0,106.55169846808407)"><svg viewBox="0 0 232.209792 56.87545265140615" height="56.87545265140615" width="232.209792"><g transform="matrix(1,0,0,1,0,0)"><svg width="232.209792" viewBox="0.65 -36.05 152.88 37.449999999999996" height="56.87545265140615" data-palette-color="#2d2a6e"><path d="M17.4-27.7L17.4-27.7 17.6-29.25Q17.6-31.55 15.8-32.2L15.8-32.2Q14.4-32.65 13.65-32.65L13.65-32.65 13.6-32.65Q12.1-32.65 11-32.18 9.9-31.7 9.4-31L9.4-31Q8.35-29.55 8.2-27.95L8.2-27.95Q8.2-26.05 9.9-24.68 11.6-23.3 14.03-22.28 16.45-21.25 18.88-20.05 21.3-18.85 23-16.6 24.7-14.35 24.7-11.2L24.7-11.2Q24.7-5.05 20.83-2 16.95 1.05 12.03 1.05 7.1 1.05 3.88-1.18 0.65-3.4 0.65-7.15L0.65-7.15 0.65-7.2Q0.65-9.05 1.23-10.43 1.8-11.8 2.6-12.45L2.6-12.45Q4.25-13.8 5.6-13.9L5.6-13.9 6.2-13.95Q7.6-13.95 8.75-13.28 9.9-12.6 9.9-11.4L9.9-11.4Q9.9-10.8 9.25-10.4 8.6-10 8.13-9.2 7.65-8.4 7.6-7.85L7.6-7.85 7.5-7.3Q7.5-4.25 10.3-3.25L10.3-3.25Q11.3-2.9 11.9-2.9L11.9-2.9Q14.65-2.9 16.32-4.55 18-6.2 18-8.75L18-8.75Q18-11.8 15.4-13.7L15.4-13.7Q13.45-15.1 11.18-16.05 8.9-17 8.1-17.4 7.3-17.8 6.4-18.35 5.5-18.9 4.4-19.9L4.4-19.9Q2-22 2-25.58 2-29.15 3.95-31.6L3.95-31.6Q7.45-36.05 14.45-36.05L14.45-36.05Q18.15-36.05 20.7-34.63 23.25-33.2 23.25-30.7L23.25-30.7Q23.25-28.9 22.23-27.7 21.2-26.5 19.6-26.5L19.6-26.5Q18.85-26.5 18.13-26.8 17.4-27.1 17.4-27.7ZM31.9-18.85L31.9-18.85Q30.6-18.8 30.02-18.78 29.45-18.75 29.45-19.05 29.45-19.35 29.75-19.65L29.75-19.65Q32.95-22.6 40.55-22.6L40.55-22.6Q43.15-22.6 44.65-22.15L44.65-22.15 45.15-22Q45.75-21.75 45.75-21.45L45.75-21.45Q45.75-21.2 45.4-21.05L45.4-21.05Q44.05-20.65 42.8-19.78 41.55-18.9 41.55-18.55L41.55-18.55 41.85-18.2Q43.45-17.3 44.32-15.35 45.2-13.4 45.3-11.9L45.3-11.9 45.4-10.35Q45.4-5.4 42.65-2.2 39.9 1 35.15 1L35.15 1Q32.75 1 31 0.15 29.25-0.7 28.42-1.78 27.6-2.85 27.1-4.2L27.1-4.2Q26.5-6.05 26.5-8.03 26.5-10 27.17-12 27.85-14 28.72-14.95 29.6-15.9 30.7-16.5L30.7-16.5Q32.1-17.25 32.95-17.25 33.8-17.25 33.8-16.9L33.8-16.9 33.5-16.4Q32.4-15.1 31.92-13 31.45-10.9 31.45-9.28 31.45-7.65 31.85-6.05 32.25-4.45 32.75-3.68 33.25-2.9 33.9-2.5L33.9-2.5Q34.85-1.9 35.9-1.9 36.95-1.9 37.95-2.73 38.95-3.55 39.4-4.9L39.4-4.9Q40.3-7.4 40.3-10.05L40.3-10.05Q40.3-14.25 38.17-16.55 36.05-18.85 31.9-18.85ZM53.75-28.6L53.75-28.6 53.45-10.25Q53.45-1.65 54 0.05L54 0.05Q54.15 0.35 54.15 0.65L54.15 0.65Q54.15 1.25 52.7 1.25 51.25 1.25 49.47 0.53 47.7-0.2 47.7-1.35L47.7-1.35Q48.7-8.35 48.7-20.05L48.7-20.05 48.5-27.7Q48.4-29.1 47.92-30.1 47.45-31.1 47-31.4L47-31.4 46.6-31.65Q46.25-31.85 46.25-32.1L46.25-32.1Q46.25-32.8 48.42-33.83 50.6-34.85 52.65-34.85L52.65-34.85Q53.45-34.85 53.55-34.3L53.55-34.3Q53.75-33 53.75-28.6ZM63.59-26.85L63.59-26.85 63.54-22Q63.54-21.7 63.74-21.7 63.94-21.7 64.14-21.85L64.14-21.85Q65.39-22.7 68.09-22.7L68.09-22.7Q72.64-22.7 74.39-19.6L74.39-19.6Q75.04-18.45 75.04-16.55 75.04-14.65 74.82-11.3 74.59-7.95 74.59-6.55L74.59-6.55Q74.59-1.65 75.99-0.05L75.99-0.05Q76.24 0.2 76.24 0.45L76.24 0.45Q76.24 0.95 74.09 0.95L74.09 0.95Q68.29 0.95 68.29-4.45L68.29-4.45Q68.29-6.55 69.29-10.35 70.29-14.15 70.29-15.95 70.29-17.75 69.44-18.73 68.59-19.7 67.09-19.7 65.59-19.7 64.72-19.05 63.84-18.4 63.64-17.7L63.64-17.7 63.49-17.05Q63.44-16.1 63.44-11 63.44-5.9 63.69-4.38 63.94-2.85 63.94-2.65L63.94-2.65Q63.94-1.2 61.99-0.08 60.04 1.05 58.14 1.05L58.14 1.05Q57.44 1.05 57.44 0.25L57.44 0.25 57.54-0.7Q58.64-9.1 58.64-18.9L58.64-18.9Q58.64-22.7 58.34-26.6L58.34-26.6 58.29-27.7Q58.19-29.1 57.72-30.1 57.24-31.1 56.84-31.4L56.84-31.4 56.39-31.65Q56.04-31.85 56.04-32.1L56.04-32.1Q56.04-32.8 58.39-33.83 60.74-34.85 62.02-34.85 63.29-34.85 63.39-34.3L63.39-34.3Q63.59-31.75 63.59-26.85ZM94.44-15L94.44-15 94.34-8.6Q94.34-1.95 95.79-0.6L95.79-0.6Q95.99-0.4 95.99-0.15L95.99-0.15Q95.99 0.6 92.77 0.6 89.54 0.6 89.34-1.3L89.34-1.3Q89.29-1.75 89.29-3.15L89.29-3.15 89.49-11.15Q89.49-11.5 89.09-11.5L89.09-11.5Q86.69-11.5 84.59-10.15 82.49-8.8 82.49-6.7L82.49-6.7Q82.49-5.6 83.09-4.85 83.69-4.1 84.57-4.1 85.44-4.1 86.02-4.45 86.59-4.8 86.69-4.85L86.69-4.85Q87.54-4.75 87.54-3.08 87.54-1.4 85.99-0.38 84.44 0.65 82.74 0.65 81.04 0.65 79.82 0.05 78.59-0.55 78.04-1.3 77.49-2.05 77.14-3L77.14-3Q76.79-4.15 76.79-5L76.79-5Q76.79-8.5 78.99-10.6 81.19-12.7 84.64-13.6L84.64-13.6Q89.19-14.5 89.39-15.25L89.39-15.25Q89.54-15.8 89.54-17.1L89.54-17.1Q89.54-19.75 86.84-19.75L86.84-19.75Q85.69-19.75 84.79-19.03 83.89-18.3 83.89-17.2L83.89-17.2 84.19-16Q84.09-15.15 82.39-15L82.39-15 81.84-14.95Q80.34-14.95 79.47-15.7 78.59-16.45 78.59-17.7L78.59-17.7Q78.59-18.5 79.12-19.48 79.64-20.45 80.44-21.05 81.24-21.65 82.92-22.13 84.59-22.6 86.14-22.6 87.69-22.6 88.54-22.5 89.39-22.4 90.87-22.03 92.34-21.65 93.32-20.6 94.29-19.55 94.37-18.38 94.44-17.2 94.44-15ZM108.76-21.6Q110.89-22.65 112.99-22.65 115.09-22.65 115.09-18.3L115.09-18.3Q115.09-15.1 113.91-11.8 112.74-8.5 110.99-6L110.99-6Q107.39-0.75 104.49 1L104.49 1Q103.79 1.4 103.44 1.4 103.09 1.4 102.71 0.65 102.34-0.1 101.56-2.65 100.79-5.2 100.29-7.2L100.29-7.2 99.84-9.25Q98.84-13.65 97.89-16.28 96.94-18.9 96.49-19.3L96.49-19.3 95.99-19.75Q95.49-20 95.49-20.35L95.49-20.35 95.74-20.8Q96.39-21.4 97.91-22.03 99.44-22.65 101.29-22.65L101.29-22.65Q102.14-22.65 102.34-21.7L102.34-21.7Q103.09-19.4 103.64-16.3 104.19-13.2 105.11-9.3 106.04-5.4 106.64-5.35L106.64-5.35Q106.94-5.35 107.31-5.8 107.69-6.25 108.21-7 108.74-7.75 109.51-9.9 110.29-12.05 110.29-13.58 110.29-15.1 110.16-15.93 110.04-16.75 109.29-17.85 108.54-18.95 107.59-19.13 106.64-19.3 106.64-19.75L106.64-19.75Q106.64-20.55 108.76-21.6ZM121.59-12.7L121.59-12.7 121.64-11.45Q121.64-11.15 122.04-11.15L122.04-11.15Q123.64-11.3 124.84-11.98 126.04-12.65 126.64-13.5L126.64-13.5Q127.84-15.35 127.94-16.7L127.94-16.7 127.99-17.3Q127.99-20 125.84-20L125.84-20Q124.24-20 123.24-18.6L123.24-18.6Q121.59-16.4 121.59-12.7ZM132.49-6.05L132.49-6.05Q132.49-4.15 131.71-2.73 130.94-1.3 129.96-0.63 128.99 0.05 127.69 0.45L127.69 0.45Q126.04 0.95 124.54 0.95L124.54 0.95Q120.34 0.95 118.34-2.2 116.34-5.35 116.34-10.23 116.34-15.1 118.81-18.9 121.29-22.7 126.24-22.7L126.24-22.7Q130.74-22.7 132.34-19.55L132.34-19.55Q132.99-18.35 132.99-17.28 132.99-16.2 132.89-15.58 132.78-14.95 132.19-13.7 131.59-12.45 130.59-11.45 129.59-10.45 127.44-9.55 125.29-8.65 122.39-8.35L122.39-8.35Q121.99-8.35 121.99-8L121.99-8Q121.99-7.55 122.31-6.68 122.64-5.8 123.04-5.2L123.04-5.2Q124.14-3.8 126.29-3.8L126.29-3.8Q128.44-3.8 129.94-5.2L129.94-5.2Q130.74-5.95 131.24-7.05L131.24-7.05Q131.44-7.45 131.76-7.45 132.09-7.45 132.28-6.9 132.49-6.35 132.49-6.05ZM135.23 0.35L135.23 0.35Q136.13-5.05 136.13-12.6 136.13-20.15 135.68-22.4L135.68-22.4Q135.68-23.05 137.18-23.05L137.18-23.05Q139.48-23.05 140.23-21.3L140.23-21.3Q140.28-21.15 140.48-21.15 140.68-21.15 140.78-21.25L140.78-21.25Q142.33-22.85 145.58-22.85 148.83-22.85 150.73-21.2 152.63-19.55 152.63-16.4L152.63-16.4Q152.63-14.5 152.31-11 151.98-7.5 151.98-5.8L151.98-5.8Q151.98-1.75 153.33 0.05L153.33 0.05Q153.53 0.3 153.53 0.55L153.53 0.55Q153.53 1.2 152.13 1.2L152.13 1.2Q145.93 1.2 145.93-4.3L145.93-4.3Q145.93-6.4 146.88-10.15 147.83-13.9 147.83-15.85L147.83-15.85Q147.83-19.85 144.53-19.85L144.53-19.85Q142.93-19.85 142.11-18.9 141.28-17.95 141.18-16.73 141.08-15.5 141.08-12.1L141.08-12.1Q141.08-6.9 141.43-3.05L141.43-3.05 141.53-1.95Q141.53-0.55 139.71 0.23 137.88 1 136.56 1 135.23 1 135.23 0.35Z" opacity="1" transform="matrix(1,0,0,1,0,0)" fill="#2d2a6e" class="slogan-text-1" data-fill-palette-color="secondary" id="text-1"></path></svg></g></svg></g></svg></g></svg></g><g><svg viewBox="0 0 244.43135999999998 198.9070571146271" height="198.9070571146271" width="244.43135999999998"><g><svg xmlns="http://www.w3.org/2000/svg" xmlns:xlink="http://www.w3.org/1999/xlink" version="1.1" x="0" y="0" viewBox="4.000383918363299 13.036999999999995 92.11994941497002 74.96300000000001" enable-background="new 0 0 100 100" xml:space="preserve" height="198.9070571146271" width="244.43135999999998" class="icon-icon-0" data-fill-palette-color="accent" id="icon-0"><g fill="#2d2a6e" data-fill-palette-color="accent"><path fill="#2d2a6e" d="M4.541 44.063c-1.097 2.86-0.185 5.37-0.185 5.37 1.14 2.965 2.499 3.449 5.354 3.449 0.958 0 1.853-0.205 2.622-0.553V88H50.11V66.366h23.608V88h14.169V52.329c0.772 0.349 1.665 0.553 2.625 0.553 2.853 0 4.73-2.364 5.167-3.954 0 0 0.993-2.994 0-4.865-1.687-3.177-14.424-31.026-14.424-31.026H18.964M14.903 48.926V48.47h-0.024v-4.407l9.767-24.945h7.801L24.76 44.063v4.865 0.002c-0.002 2.181-2.208 3.95-4.929 3.95C17.11 52.88 14.903 51.111 14.903 48.926zM33.568 74.542H20.792V61.767h12.775V74.542zM44.954 44.063v4.407 0.456c0 2.184-2.207 3.954-4.927 3.954-2.724 0-4.93-1.769-4.93-3.954V48.47v-4.407l4.083-24.945h7.778L44.954 44.063zM60.22 52.88c-2.721 0-4.927-1.769-4.927-3.954V48.47v-4.407l-2.006-24.945h7.754l4.081 24.945v4.865c0 0.065 0.011 0.132 0.015 0.196C65.006 51.215 62.857 52.88 60.22 52.88zM85.342 48.47h-0.025v0.456c0 2.184-2.206 3.954-4.929 3.954-2.721 0-4.927-1.769-4.927-3.954V48.47v-4.407l-7.688-24.945h7.802l9.768 24.945V48.47z" data-fill-palette-color="accent"></path></g></svg></g></svg></g></svg></g><defs></defs></svg><rect width="395.52" height="114.27777733645394" fill="none" stroke="none" visibility="hidden"></rect></g></svg></g></svg>